{"title":"Halsey - Colors (2016 Pop)","uid":14073548,"size":83381521,"categoryP":"video","categoryS":"music_videos","magnet":"?xt=urn:btih:a54af98b9fe9495c046ce97b0769e3614acdee16&amp;dn=Halsey+-+Colors+%282016+Pop%29&amp;tr=udp%3A%2F%2Ftracker.leechers-paradise.org%3A6969&amp;tr=udp%3A%2F%2Fzer0day.ch%3A1337&amp;tr=udp%3A%2F%2Fopen.demonii.com%3A1337&amp;tr=udp%3A%2F%2Ftracker.coppersurfer.tk%3A6969&amp;tr=udp%3A%2F%2Fexodus.desync.com%3A6969","seeders":12,"leechers":0,"uploader":"MeRaDil","files":1,"time":1459193682,"description":"http://gifyu.com/images/colors.png\r\n\r\n                                    MEDIA INFO\r\nHalsey - Colors\r\nFormat                                   : MPEG-4\r\nFormat profile                           : Base Media\r\nCodec ID                                 : isom (isom/iso2/avc1/mp41)\r\nFile size                                : 79.5 MiB\r\nDuration                                 : 4mn 14s\r\nOverall bit rate                         : 2 618 Kbps\r\nMusicVid name                            : Colors\r\nAlbum                                    : Badlands\r\nPerformer                                : Halsey\r\nPublisher                                : MeRaDil\r\nGenre                                    : Electropop\r\nContentType                              : Music Video\r\nRecorded date                            : 2016\r\nWriting application                      : Lavf56.32.100/MeRaDil\r\nRelease date                             : USA - february 25 - 2016\r\n \nhttp://gifyu.com/images/halsey.png\r\n\r\nVideo\r\nID                                       : 1\r\nFormat                                   : AVC\r\nFormat/Info                              : Advanced Video Codec\r\nFormat profile                           :   \r\nFormat settings, CABAC                   : Yes\r\nFormat settings, ReFrames                : 2 frames\r\nCodec ID                                 : avc1\r\nCodec ID/Info                            : Advanced Video Coding\r\nDuration                                 : 4mn 14s\r\nBit rate                                 : 2 337 Kbps\r\nWidth                                    : 1 920 pixels\r\nHeight                                   : 1 080 pixels\r\nDisplay aspect ratio                     : 16:9\r\nFrame rate mode                          : Variable\r\nFrame rate                               : 23.976 (24000/1001) fps\r\nMinimum frame rate                       : 23.974 fps\r\nMaximum frame rate                       : 23.981 fps\r\nColor space                              : YUV\r\nChroma subsampling                       : 4:2:0\r\nBit depth                                : 8 bits\r\nScan type                                : Progressive\r\nBits/(Pixel*Frame)                       : 0.047\r\nStream size                              : 71.0 MiB (89%)\r\nColor range                              : Limited\r\n\r\nAudio\r\nID                                       : 2\r\nFormat                                   : AAC\r\nFormat/Info                              : Advanced Audio Codec\r\nFormat profile                           : LC\r\nCodec ID                                 : 40\r\nDuration                                 : 4mn 14s\r\nBit rate mode                            : Constant\r\nBit rate                                 : 256 Kbps\r\nChannel(s)                               : 2 channels\r\nChannel positions                        : Front: L R\r\nSampling rate                            : 44.1 KHz\r\nFrame rate                               : 43.066 fps (1024 spf)\r\nCompression mode                         : Lossy\r\nStream size                              : 7.78 MiB (10%)\r\nDefault                                  : Yes\r\nAlternate group                          : 1","torrent":{"xt":"urn:btih:a54af98b9fe9495c046ce97b0769e3614acdee16","amp;dn":"Halsey+-+Colors+%282016+Pop%29","amp;tr":["udp%3A%2F%2Ftracker.leechers-paradise.org%3A6969","udp%3A%2F%2Fzer0day.ch%3A1337","udp%3A%2F%2Fopen.demonii.com%3A1337","udp%3A%2F%2Ftracker.coppersurfer.tk%3A6969","udp%3A%2F%2Fexodus.desync.com%3A6969"],"infoHash":"a54af98b9fe9495c046ce97b0769e3614acdee16","infoHashBuffer":{"type":"Buffer","data":[165,74,249,139,159,233,73,92,4,108,233,123,7,105,227,97,74,205,238,22]},"announce":[],"urlList":[]}}